<svg width="180" height="180" viewBox="0 0 180 180" fill="none" xmlns="http://www.w3.org/2000/svg">
  <circle cx="90" cy="90" r="85" stroke="white" stroke-width="5" fill="black"/>
  <g fill="white">
    <!-- Integrated F and $ symbol -->
    <path d="M45 34H113V45H56V56H105V67H56V78H105V90H45V34Z"/>
    <!-- $ curves overlaid on F -->
    <path d="M68 45C68 41.6863 70.6863 39 74 39H84C87.3137 39 90 41.6863 90 45V51C90 54.3137 87.3137 57 84 57H74C70.6863 57 68 59.6863 68 63V73C68 76.3137 70.6863 79 74 79H84C87.3137 79 90 81.6863 90 85V91C90 94.3137 87.3137 97 84 97H74C70.6863 97 68 94.3137 68 91V85H56V91C56 96.5228 60.4772 101 66 101H90C95.5228 101 100 96.5228 100 91V85C100 81.6863 97.3137 79 94 79H84C80.6863 79 78 76.3137 78 73V63C78 59.6863 80.6863 57 84 57H94C97.3137 57 100 54.3137 100 51V45C100 39.4772 95.5228 35 90 35H66C60.4772 35 56 39.4772 56 45V51H68V45Z"/>
  </g>
</svg> 