<svg width="32" height="32" viewBox="0 0 32 32" fill="none" xmlns="http://www.w3.org/2000/svg">
  <circle cx="16" cy="16" r="15" stroke="white" stroke-width="2" fill="black"/>
  <g fill="white">
    <!-- Integrated F and $ symbol -->
    <path d="M8 6H20V8H10V10H18V12H10V14H18V16H10V18H20V20H8V6Z"/>
    <!-- $ curves overlaid on F -->
    <path d="M12 8C12 7.44772 12.4477 7 13 7H15C15.5523 7 16 7.44772 16 8V9C16 9.55228 15.5523 10 15 10H13C12.4477 10 12 10.4477 12 11V13C12 13.5523 12.4477 14 13 14H15C15.5523 14 16 14.4477 16 15V16C16 16.5523 15.5523 17 15 17H13C12.4477 17 12 16.5523 12 16V15H10V16C10 17.1046 10.8954 18 12 18H16C17.1046 18 18 17.1046 18 16V15C18 14.4477 17.5523 14 17 14H15C14.4477 14 14 13.5523 14 13V11C14 10.4477 14.4477 10 15 10H17C17.5523 10 18 9.55228 18 9V8C18 6.89543 17.1046 6 16 6H12C10.8954 6 10 6.89543 10 8V9H12V8Z"/>
  </g>
</svg> 